<svg width="57" height="58" viewBox="0 0 57 58" fill="none" xmlns="http://www.w3.org/2000/svg">
<path d="M28.6309 26.6108C25.3602 26.6108 22.333 27.6529 19.8455 29.4086C19.7229 29.0712 19.6405 28.7189 19.6405 28.359C19.6405 27.1104 20.3813 25.9855 21.5302 25.4937L21.9815 25.2996C24.0315 24.4202 25.6497 22.7391 26.4667 20.6876C27.2471 21.2496 27.7318 22.1613 27.7318 23.1602V24.8127H29.53V23.1602C29.53 21.0725 28.1993 19.226 26.218 18.5661L25.2973 18.2585L25.0616 19.2004C24.5663 21.1801 23.1503 22.8435 21.272 23.6479L20.8207 23.842C19.0119 24.6173 17.8422 26.3912 17.8422 28.359C17.8422 29.1194 18.0221 29.8795 18.361 30.5563L18.3779 30.5913C15.2969 33.3903 13.3468 37.4136 13.3468 41.8944C13.3468 50.322 20.2029 57.1785 28.6308 57.1785C37.0584 57.1785 43.9149 50.3224 43.9149 41.8944C43.9149 33.4669 37.0584 26.6103 28.6308 26.6103L28.6309 26.6108ZM28.6309 55.3801C21.1947 55.3801 15.1447 49.3304 15.1447 41.8939C15.1447 34.4574 21.1944 28.4077 28.6309 28.4077C36.0675 28.4077 42.1171 34.4574 42.1171 41.8939C42.1171 49.3304 36.0675 55.3801 28.6309 55.3801Z" fill="white"/>
<path d="M27.7315 51.7842H29.5297V53.5824H27.7315V51.7842Z" fill="white"/>
<path d="M33.7162 48.2545L34.9877 46.983L33.6632 45.6585C34.2799 44.836 34.6982 43.8595 34.8518 42.7959L36.7219 42.7963V40.9981H34.8518C34.699 39.9344 34.2799 38.9579 33.6632 38.1354L34.9877 36.8109L33.7162 35.5394L32.3917 36.8639C31.5692 36.2473 30.5927 35.8289 29.5291 35.6754V33.8053H27.7309V35.6754C26.6672 35.8282 25.6908 36.2473 24.8682 36.8639L23.5438 35.5394L22.2723 36.8109L23.5967 38.1354C22.9801 38.9579 22.5618 39.9344 22.4082 40.9981H20.5389V42.7963H22.409C22.5618 43.8599 22.9809 44.8364 23.5976 45.6589L22.2731 46.9834L23.5446 48.2549L24.869 46.9304C25.6915 47.5471 26.668 47.9654 27.7317 48.1189V49.989H29.5299V48.1189C30.5935 47.9662 31.57 47.5471 32.3925 46.9304L33.7162 48.2545ZM28.6304 46.3927C26.1516 46.3927 24.135 44.3761 24.135 41.8972C24.135 39.4184 26.1516 37.4018 28.6304 37.4018C31.1093 37.4018 33.1259 39.4184 33.1259 41.8972C33.1259 44.3761 31.1093 46.3927 28.6304 46.3927Z" fill="white"/>
<path d="M34.9853 49.5275L36.2568 48.256L37.5283 49.5275L36.2568 50.799L34.9853 49.5275Z" fill="white"/>
<path d="M38.5209 40.9945H40.3191V42.7927H38.5209V40.9945Z" fill="white"/>
<path d="M34.9882 34.268L36.2597 32.9965L37.5312 34.268L36.2597 35.5395L34.9882 34.268Z" fill="white"/>
<path d="M27.7315 30.2087H29.5297V32.0069H27.7315V30.2087Z" fill="white"/>
<path d="M19.7311 34.266L21.0026 32.9945L22.2741 34.266L21.0026 35.5375L19.7311 34.266Z" fill="white"/>
<path d="M16.9438 40.9965H18.742V42.7947H16.9438V40.9965Z" fill="white"/>
<path d="M19.7302 49.5236L21.0017 48.2521L22.2732 49.5236L21.0017 50.7951L19.7302 49.5236Z" fill="white"/>
<path d="M54.2268 35.5079L53.9507 35.0943C52.0917 32.3071 51.1089 29.0615 51.1089 25.7111V24.4632L49.9258 24.8579C47.9587 25.5135 46.3648 26.8962 45.4378 28.7501L44.911 29.8039L46.5195 30.6087L47.0462 29.5549C47.5702 28.5065 48.3723 27.6549 49.3605 27.0771C49.5943 30.2969 50.6525 33.3896 52.4549 36.0919L52.731 36.5056C54.0217 38.4443 54.7052 40.6989 54.7052 43.0277C54.7052 47.8963 51.6583 52.3384 47.1244 54.0826L43.5928 55.44L44.2394 57.1184L47.7701 55.7609C52.9933 53.7506 56.5033 48.6338 56.5033 43.0278C56.5033 40.3432 55.7158 37.7441 54.2267 35.508L54.2268 35.5079Z" fill="white"/>
<path d="M50.8393 36.9081C50.4724 36.3444 50.1335 35.7655 49.8315 35.1845L48.2375 36.0153C48.5655 36.6465 48.9343 37.2757 49.3318 37.8881L50.8393 36.9081Z" fill="white"/>
<path d="M49.3844 50.6678C51.6229 48.7474 52.9069 45.9692 52.9069 43.0474C52.9069 41.5729 52.5915 40.149 51.9701 38.8163L50.34 39.5767C50.8506 40.6702 51.1087 41.8372 51.1087 43.0474C51.1087 45.4442 50.0533 47.7243 48.2127 49.3029L49.3844 50.6678Z" fill="white"/>
<path d="M2.55845 43.0296C2.55845 40.7012 3.2419 38.4462 4.53261 36.5078L4.80874 36.0942C6.61246 33.3907 7.67059 30.299 7.90307 27.0794C8.8921 27.6576 9.69301 28.5088 10.2174 29.5572L10.7441 30.611L12.3526 29.8061L11.8258 28.7523C10.8989 26.8976 9.30498 25.5157 7.33786 24.8602L6.15475 24.4651V25.713C6.15475 29.0646 5.172 32.3094 3.31291 35.0974L3.03678 35.511C1.54769 37.746 0.760157 40.345 0.760157 43.0297C0.760157 48.6363 4.27007 53.7537 9.49451 55.7627L13.0241 57.1202L13.6707 55.4418L10.1399 54.0844C5.60518 52.34 2.55842 47.8976 2.55842 43.0296L2.55845 43.0296Z" fill="white"/>
<path d="M9.0264 36.0172L7.43243 35.1865C7.13038 35.7674 6.79141 36.3463 6.42459 36.91L7.93329 37.89C8.32961 37.2777 8.69844 36.6484 9.0264 36.0172V36.0172Z" fill="white"/>
<path d="M4.35683 43.047C4.35683 45.969 5.6409 48.7472 7.87932 50.6674L9.05056 49.3025C7.21033 47.7239 6.15493 45.4438 6.15493 43.047C6.15493 41.8369 6.41299 40.6691 6.92282 39.5767L5.29275 38.8163C4.67215 40.1482 4.35674 41.5724 4.35674 43.047L4.35683 43.047Z" fill="white"/>
<path d="M35.7769 17.2184L35.4045 16.1017L34.4253 16.7553C32.4865 18.0484 31.3286 20.2127 31.3286 22.5419V23.0128H33.1268V22.5419C33.1268 21.1832 33.657 19.9011 34.5825 18.9502C35.3657 20.3635 36.6261 21.4593 38.1725 22.0375L40.118 22.7638C41.3137 23.2108 42.1173 24.3687 42.1173 25.6994C42.1173 26.5518 41.7882 27.3511 41.1888 27.9489L40.5827 28.555L41.8542 29.8265L42.4591 29.2216C43.3987 28.2844 43.9155 27.0337 43.9155 25.6464C43.9155 23.6228 42.6425 21.7877 40.7473 21.0803L38.8026 20.354C37.3658 19.8159 36.2624 18.6741 35.7769 17.2184L35.7769 17.2184Z" fill="white"/>
<path d="M13.8814 27.7499L14.6458 28.259L15.6427 26.7629L14.8783 26.2538C13.9195 25.614 13.3457 24.544 13.3457 23.3897C13.3457 22.3118 13.8598 21.2812 14.7204 20.6358L14.9408 20.4712C15.8901 19.7583 16.6455 18.8439 17.1624 17.792C17.6074 18.5599 17.8411 19.4264 17.8411 20.3192H19.6393C19.6393 18.9644 19.243 17.6525 18.4912 16.526L16.6714 13.7965L15.8387 16.2887C15.4726 17.3893 14.7895 18.3367 13.8645 19.0319L13.6442 19.1965C12.3315 20.1808 11.5475 21.7484 11.5475 23.3895C11.5475 25.146 12.4206 26.7761 13.8814 27.7497L13.8814 27.7499Z" fill="white"/>
<path d="M23.0672 16.38L22.0173 16.7803L22.6584 18.4606L23.7075 18.0603C25.0391 17.554 25.9335 16.2547 25.9335 14.8297C25.9335 13.9962 25.5953 13.1815 24.9492 12.539C24.4322 12.0228 24.1353 11.3092 24.1353 10.5385C24.1353 9.97128 24.3026 9.42182 24.6165 8.94962L24.9625 8.4335C25.5973 7.48178 25.9335 6.37336 25.9335 5.19458C25.9335 4.5131 25.8129 3.82967 25.5819 3.18703C26.5969 3.4235 27.4366 4.16978 27.7776 5.19026L29.4823 4.6211C28.8224 2.64031 26.9747 1.30908 24.8882 1.30908L22.68 1.30908L23.6977 3.34368C23.9844 3.91596 24.1352 4.55625 24.1352 5.22865C24.1352 6.01696 23.9043 6.78059 23.4671 7.43489L23.1211 7.951C22.6089 8.71968 22.3374 9.61526 22.3374 10.58C22.3374 11.7839 22.8265 12.9615 23.7365 13.8688C23.9899 14.1201 24.1352 14.4717 24.1352 14.8295C24.1352 15.5138 23.7055 16.1359 23.0672 16.3798L23.0672 16.38Z" fill="white"/>
<path d="M33.5838 3.80286C34.0916 5.06601 34.9314 6.15923 36.0308 6.98487L36.2457 7.14592C37.109 7.79205 37.6232 8.82234 37.6232 9.90057C37.6232 11.0549 37.0497 12.1257 36.0901 12.7659L35.3258 13.275L36.3226 14.7711L37.087 14.2621C38.5486 13.2872 39.4214 11.6571 39.4214 9.90057C39.4214 8.25995 38.6374 6.69192 37.3231 5.70559L37.1083 5.54455C36.1805 4.84853 35.4971 3.9003 35.1302 2.79975L34.4856 0.867615L32.7692 2.1552C30.742 3.67446 29.5319 6.09407 29.5319 8.62831H31.3301C31.3301 6.77009 32.1671 4.9907 33.5839 3.80296L33.5838 3.80286Z" fill="white"/>
<path d="M43.2446 14.8897L46.8939 17.1698C47.8433 17.7637 48.4105 18.7869 48.4105 19.9072C48.4105 20.9889 47.8727 21.992 46.9729 22.5918L46.1134 23.1653L47.1103 24.6614L47.9698 24.088C49.3716 23.1547 50.2087 21.5922 50.2087 19.9072C50.2087 18.164 49.3257 16.57 47.8469 15.6454L44.1967 13.3645C43.4579 12.9025 43.0164 12.1059 43.0164 11.2332C43.0164 10.844 43.1079 10.4555 43.2815 10.1086L43.8208 9.03162L42.2124 8.22681L41.6731 9.30383C41.3758 9.89969 41.2182 10.567 41.2182 11.2332C41.2182 12.7302 41.9763 14.0974 43.2446 14.8897L43.2446 14.8897Z" fill="white"/>
<path d="M18.1956 9.35517C18.5471 9.7075 18.7416 10.1769 18.7416 10.6749C18.7416 10.9625 18.6732 11.2519 18.5448 11.5092L17.9371 12.7237L19.5456 13.5285L20.1532 12.3128C20.4058 11.8065 20.5397 11.2413 20.5397 10.6757C20.5397 9.6965 20.1583 8.77697 19.467 8.08446L19.1135 7.73096C18.8735 7.49057 18.7416 7.17202 18.7416 6.83226C18.7416 6.4925 18.8735 6.17434 19.1139 5.93318L20.2765 4.77058L19.005 3.49908L17.8424 4.66208C17.2627 5.24183 16.9433 6.01251 16.9433 6.83222C16.9433 7.65235 17.2627 8.42338 17.8424 9.00236L18.1956 9.35517Z" fill="white"/>
</svg>
