<svg width="58" height="59" viewBox="0 0 58 59" fill="none" xmlns="http://www.w3.org/2000/svg">
<path d="M28.7687 0.830627C12.9458 0.830627 0.0717468 13.714 0.0717468 29.5496C0.0717468 45.384 12.9458 58.2674 28.7687 58.2674C44.5917 58.2674 57.4657 45.384 57.4657 29.5496C57.4657 13.714 44.5917 0.830627 28.7687 0.830627ZM28.7687 56.4345C13.9553 56.4345 1.90326 44.3738 1.90326 29.5496C1.90326 14.7242 13.9553 2.66347 28.7687 2.66347C43.5822 2.66347 55.6342 14.7242 55.6342 29.5496C55.6342 44.3738 43.5822 56.4345 28.7687 56.4345Z" fill="white"/>
<path d="M27.853 9.85419H29.6846V14.4887H27.853V9.85419Z" fill="white"/>
<path d="M43.817 28.6339H48.4469V30.4669H43.817V28.6339Z" fill="white"/>
<path d="M27.853 44.61H29.6846V49.2442H27.853V44.61Z" fill="white"/>
<path d="M9.08961 28.6331H13.7195V30.4661H9.08961V28.6331Z" fill="white"/>
<path d="M17.4808 19.5474L14.2064 16.2706L15.5015 14.9747L18.7758 18.2514L17.4808 19.5474Z" fill="white"/>
<path d="M40.4033 19.9581L39.1551 18.617L42.5432 15.4583L43.7914 16.7994L40.4033 19.9581Z" fill="white"/>
<path d="M41.5118 44.5849L38.3554 41.1944L39.6955 39.9453L42.8519 43.3359L41.5118 44.5849Z" fill="white"/>
<path d="M14.991 43.643L13.7428 42.3018L17.1309 39.1431L18.3791 40.4843L14.991 43.643Z" fill="white"/>
<path d="M31.9368 25.0829L28.7685 28.2544L22.4701 21.951L21.1751 23.2475L27.4731 29.55L24.8515 32.1744L26.1466 33.4699L28.7686 30.846L31.5932 33.6727L32.8883 32.3772L30.0636 29.55L33.2323 26.3794L31.9368 25.0829Z" fill="white"/>
<path d="M28.7683 5.46509C15.4975 5.46509 4.70135 16.2696 4.70135 29.5495C4.70135 42.8289 15.4976 53.634 28.7683 53.634C42.0381 53.634 52.8353 42.8295 52.8353 29.5495C52.8353 16.269 42.0382 5.46509 28.7683 5.46509ZM28.7683 51.8011C16.5081 51.8011 6.53287 41.8187 6.53287 29.5495C6.53287 17.2793 16.5072 7.29793 28.7683 7.29793C41.0294 7.29793 51.0038 17.2795 51.0038 29.5495C51.0038 41.8187 41.0286 51.8011 28.7683 51.8011Z" fill="white"/>
</svg>
