<svg width="31" height="18" viewBox="0 0 31 18" fill="none" xmlns="http://www.w3.org/2000/svg">
<path d="M22.4067 0C20.1267 0 17.4067 0.866667 17.4067 5V13C17.4067 17.1333 20.1267 18 22.4067 18C24.6867 18 27.4067 17.1333 27.4067 13V5C27.4067 0.866667 24.6867 0 22.4067 0ZM8.59333 0C6.31333 0 3.59333 0.866667 3.59333 5V13C3.59333 17.1333 6.31333 18 8.59333 18C10.8733 18 13.5933 17.1333 13.5933 13V5C13.5933 0.866667 10.8733 0 8.59333 0ZM17.4067 8H13.5933V10H17.4067V8ZM29.5 13.3333C28.9533 13.3333 28.5 12.88 28.5 12.3333V5.66667C28.5 5.12 28.9533 4.66667 29.5 4.66667C30.0467 4.66667 30.5 5.12 30.5 5.66667V12.3333C30.5 12.88 30.0467 13.3333 29.5 13.3333ZM1.5 13.3333C0.953333 13.3333 0.5 12.88 0.5 12.3333V5.66667C0.5 5.12 0.953333 4.66667 1.5 4.66667C2.04667 4.66667 2.5 5.12 2.5 5.66667V12.3333C2.5 12.88 2.04667 13.3333 1.5 13.3333Z" fill="url(#paint0_linear_477_58)"/>
<defs>
<linearGradient id="paint0_linear_477_58" x1="30.5" y1="9" x2="0.5" y2="9" gradientUnits="userSpaceOnUse">
<stop/>
<stop offset="0.4" stop-color="#4C8050"/>
<stop offset="0.600962" stop-color="#4C8050"/>
<stop offset="1"/>
</linearGradient>
</defs>
</svg>
