<svg width="24" height="24" viewBox="0 0 24 24" fill="none" xmlns="http://www.w3.org/2000/svg">
<path d="M5.33984 13.9297H7.24023C8.24642 13.9297 8.93215 14.1949 9.36719 14.6318C9.74767 15.0142 9.99667 15.5885 10.0498 16.4033L10.0596 16.7676V18.6699C10.0596 19.6758 9.79584 20.3622 9.35938 20.7988C8.92282 21.2354 8.23635 21.4999 7.23047 21.5H5.33008C4.32395 21.5 3.63769 21.2353 3.20117 20.7979C2.76464 20.3602 2.50003 19.6716 2.5 18.6602V16.7598C2.50004 15.7538 2.76473 15.0683 3.20215 14.6318C3.63981 14.1952 4.32821 13.9297 5.33984 13.9297ZM16.7695 13.9297H18.6699C19.6759 13.9297 20.3622 14.1943 20.7988 14.6309C21.2354 15.0675 21.5 15.7538 21.5 16.7598V18.6602C21.5 19.6662 21.2354 20.3525 20.7988 20.7891C20.3622 21.2256 19.676 21.4902 18.6699 21.4902H16.7695C15.7637 21.4902 15.0772 21.2256 14.6406 20.7891C14.2041 20.3525 13.9405 19.6661 13.9404 18.6602V16.7598C13.9405 15.7538 14.2041 15.0675 14.6406 14.6309C15.0772 14.1943 15.7637 13.9298 16.7695 13.9297ZM5.33984 2.5H7.24023C8.2462 2.50004 8.93203 2.76425 9.36719 3.2002C9.74785 3.58171 9.99679 4.15471 10.0498 4.96582L10.0596 5.32812V7.23047C10.0595 8.23635 9.79593 8.92282 9.35938 9.35938C8.92282 9.79593 8.23635 10.0595 7.23047 10.0596H5.33008C4.32415 10.0596 3.63781 9.79584 3.20117 9.35938C2.76461 8.92282 2.50008 8.23635 2.5 7.23047V5.33008C2.5 4.32395 2.76465 3.63769 3.20215 3.20117C3.63982 2.76464 4.32841 2.50003 5.33984 2.5ZM16.7695 2.5H18.6699C19.6761 2.5 20.3622 2.76455 20.7988 3.20117C21.2355 3.6378 21.5 4.32394 21.5 5.33008V7.23047C21.4999 8.23635 21.2354 8.92282 20.7988 9.35938C20.3622 9.79584 19.6758 10.0596 18.6699 10.0596H16.7695C15.7637 10.0595 15.0772 9.79593 14.6406 9.35938C14.2041 8.92282 13.9405 8.23635 13.9404 7.23047V5.33008C13.9404 4.32415 14.2042 3.63781 14.6406 3.20117C15.0772 2.76461 15.7637 2.50008 16.7695 2.5Z" fill="white" stroke="#475569"/>
</svg>
