<svg width="55" height="53" viewBox="0 0 55 53" fill="none" xmlns="http://www.w3.org/2000/svg">
<path d="M53.5286 11.7031C53.2374 11.5532 52.8934 11.5462 52.5967 11.6852L48.5428 13.57L41.0453 15.2317L34.8326 15.7747L31.848 15.9401L32.7159 14.3214L32.716 14.3218C33.309 14.4347 33.9172 14.443 34.5131 14.3466C34.9074 14.2797 35.2794 14.1165 35.596 13.8714C36.0683 13.4896 36.1702 12.5661 36.1879 12.036L36.8483 11.7295L36.8479 11.7296C36.9514 11.6815 37.0317 11.5943 37.071 11.4869C37.1102 11.3795 37.105 11.2611 37.0573 11.1575L36.5394 10.0417C36.4841 9.74025 36.2178 8.31869 35.9821 7.5257L35.9817 7.52577C35.6943 6.67182 35.05 5.98531 34.2161 5.64501C33.1178 5.2452 31.9078 5.2859 30.8389 5.75799C30.4031 5.2357 29.7382 4.96151 29.0613 5.02488C28.3843 5.08826 27.7817 5.48154 27.4512 6.07538C27.1204 6.66969 27.1034 7.38883 27.4063 7.99777C27.6547 8.54164 28.1117 8.96268 28.6744 9.16611C28.6565 9.41077 28.667 9.65663 28.7059 9.89899C28.8385 10.8078 29.1418 11.6834 29.5998 12.4794L29.1324 13.0276L28.3533 12.4425C28.3135 12.3844 28.2713 12.3279 28.2256 12.2737L28.2253 12.2741C27.5286 11.4399 26.5949 10.8372 25.5482 10.5449L19.6472 8.89135L16.5126 7.3172L11.2973 4.95599L11.2824 4.91893L11.282 4.919C11.1989 4.71336 11.1856 4.48566 11.2451 4.27176L11.5642 3.13465L11.5643 3.13503C11.6239 2.92384 11.6449 2.70364 11.6275 2.48495L11.5518 1.53659C11.5125 1.0437 11.1482 0.638437 10.6625 0.546332C10.1769 0.454603 9.68947 0.699219 9.47305 1.14345L8.57175 2.99303L8.33194 2.85594L8.33201 2.85632C8.03518 2.68752 7.65867 2.77803 7.47117 3.06318L6.34025 4.79016C6.14871 5.08079 6.22231 5.47114 6.50677 5.6713L7.07252 6.07145L6.32933 7.59726C4.59066 10.331 0.569363 16.6803 0.436656 17.1527C0.355619 17.4416 0.411522 17.9008 1.43885 19.1159C1.68643 19.4093 1.99469 19.6456 2.34209 19.8085L13.3295 24.9787C13.6837 26.0211 15.4743 31.2209 16.6367 33.0323C17.8203 34.8755 18.3724 39.903 18.3782 39.9555L18.4469 40.5587L18.447 40.5591C18.6166 42.0544 19.0364 43.5106 19.6884 44.8668L19.8355 45.1753C20.3047 46.1523 20.6463 47.1862 20.8514 48.2511L21.3822 51.0079C21.4591 51.4074 21.6914 51.7598 22.0282 51.9879C22.3651 52.216 22.7785 52.3008 23.178 52.2239L29.3479 51.036C29.7404 50.9573 30.0138 50.5996 29.9863 50.2003C29.9591 49.8007 29.6392 49.4836 29.2398 49.4595L26.6521 49.3597C26.1508 49.3407 25.6647 49.1813 25.2495 48.8999L25.0729 48.7803C24.4669 48.368 24.0544 47.7269 23.9306 47.0047L22.5313 38.7523L20.5919 28.6798C20.458 27.9901 20.5832 27.2757 20.9432 26.6725L23.3016 26.2706L23.3744 26.2565C25.0027 25.943 27.6426 24.2901 27.955 24.0925C29.6085 23.3407 31.2606 22.432 31.8587 20.4557C31.8714 20.4564 31.8839 20.4583 31.8969 20.4585L31.8968 20.4581C33.3752 20.4973 34.8493 20.2867 36.2575 19.8355L39.3602 18.8434L44.9563 17.108L47.9942 16.0924L49.6712 15.9817L49.6707 15.9814C49.7559 15.976 49.8369 15.9455 49.9045 15.8937L51.7813 14.4555L53.5137 13.6051L53.514 13.6046C53.875 13.4274 54.1049 13.0616 54.1081 12.6592C54.1113 12.2572 53.8871 11.8877 53.5291 11.7044L53.5286 11.7031ZM35.578 11.369C35.4234 11.4406 35.3259 11.5973 35.3293 11.7677C35.3393 12.3826 35.206 13.0799 35.0546 13.2021C34.3299 13.7889 32.8321 13.484 32.3909 13.3767L32.3905 13.3767C31.9087 13.2338 31.4498 13.0226 31.0272 12.7499C30.6011 12.4588 30.2719 12.0464 30.0816 11.5665C31.7808 9.46615 34.3979 8.76296 35.358 8.56869C35.5393 9.362 35.6981 10.2376 35.7004 10.2493C35.707 10.2856 35.718 10.3207 35.7335 10.3541L36.0934 11.1291L35.578 11.369ZM33.9181 6.45331L33.9184 6.45324C34.4836 6.69373 34.9254 7.15573 35.1407 7.73105C34.0966 7.94187 31.5908 8.63384 29.7498 10.6345C29.6752 10.3611 29.6094 10.0679 29.5559 9.75356C29.3688 8.65587 30.0455 7.20161 31.0042 6.64069L31.0038 6.64038C31.9041 6.16473 32.9647 6.09641 33.9184 6.45318L33.9181 6.45331ZM28.1817 7.62356C27.8887 7.01271 28.1447 6.28005 28.7544 5.98531C29.2126 5.77766 29.7512 5.87679 30.1051 6.23393C29.494 6.79017 29.0513 7.50707 28.8273 8.30246C28.5417 8.15539 28.3143 7.91605 28.182 7.62317L28.1817 7.62356ZM30.1511 13.1602L30.1511 13.1598C30.2841 13.2854 30.4307 13.3958 30.5874 13.4898C30.9869 13.7383 31.4103 13.9465 31.8513 14.1114L31.2712 15.1927C31.1999 15.0643 31.1261 14.9371 31.0462 14.8131C30.7432 14.3499 30.36 13.9439 29.9144 13.615L29.8223 13.545L30.1511 13.1602ZM19.2978 9.6799L19.2977 9.67952C19.3224 9.69161 19.3482 9.70153 19.3746 9.70858L25.3148 11.3745C26.1945 11.6198 26.9789 12.1263 27.5642 12.8273C27.8301 13.145 27.9285 13.5705 27.8289 13.9723C27.7293 14.3745 27.4436 14.7048 27.0602 14.8612L26.8366 14.9528C26.4595 15.1053 26.0332 15.0734 25.6832 14.8667L24.1819 13.9743L18.2876 10.7202L11.6471 7.16571C11.7794 6.82578 11.808 6.45374 11.7292 6.09729L16.1416 8.09389L19.2978 9.6799ZM20.4194 21.4015L20.4198 21.4011C20.8 22.5359 21.2984 23.6276 21.9068 24.6583L22.4306 25.5443L20.8527 25.8136C20.4688 25.3311 19.4676 23.979 19.2256 22.7224C19.0634 21.7883 19.0535 20.834 19.1962 19.8968C19.391 19.8715 19.6295 19.8389 19.8842 19.8016L20.4194 21.4015ZM18.8919 19.0672L17.6528 18.5132L17.6523 18.5129C16.897 18.1759 16.0689 18.0358 15.2447 18.1055L13.1869 18.2825C12.653 18.3285 12.1157 18.2671 11.6064 18.1016L6.0668 16.3088C6.43608 15.839 6.7714 15.3433 7.0708 14.826C7.91167 13.3847 8.70801 10.6422 9.10753 9.13551L9.1076 9.13589C9.21796 8.72265 9.57914 8.42638 10.0057 8.3983C10.4413 8.37081 10.8532 8.18968 11.1677 7.88674L17.8762 11.4771L23.7537 14.7235L24.0849 14.9201L22.7158 17.4073C22.4313 17.9453 21.9792 18.3753 21.4281 18.633C21.2172 18.7292 19.9729 18.9296 18.8919 19.0673L18.8919 19.0672ZM8.081 3.70451L8.5737 3.98558L8.49989 5.15815L7.97512 5.65627L7.17415 5.08799L8.081 3.70451ZM7.06853 8.0398C7.07722 8.02599 7.08547 8.01187 7.09244 7.99721L7.80001 6.54682C7.90286 6.58067 8.01276 6.58809 8.11908 6.5688C8.24029 6.54546 8.35217 6.48789 8.44154 6.40294L9.15465 5.72367C9.27204 5.6114 9.34335 5.45905 9.35327 5.29697L9.44064 3.90605L9.44102 3.90597C9.45016 3.74601 9.39993 3.58886 9.29985 3.46363L10.2463 1.52085L10.2463 1.52123C10.2793 1.45457 10.3414 1.40698 10.4143 1.39295C10.48 1.3803 10.5477 1.39624 10.6009 1.4369C10.6541 1.47718 10.6878 1.53843 10.6929 1.60521L10.7684 2.55282C10.7777 2.67008 10.7663 2.78818 10.7345 2.9016L10.4152 4.03764C10.3043 4.43571 10.3287 4.85941 10.4843 5.24255L10.84 6.11389C10.9677 6.42333 10.9311 6.77615 10.7432 7.05317L10.7091 7.1036C10.537 7.35916 10.256 7.52056 9.94879 7.53976C9.56045 7.5648 9.18994 7.71093 8.88938 7.95794C8.58881 8.20495 8.37374 8.54006 8.27427 8.91634C7.88621 10.3808 7.11633 13.0391 6.32642 14.3931C6.22861 14.5604 6.13293 14.7143 6.03836 14.8617L6.03874 14.8616C5.04981 14.5171 3.99234 14.4184 2.95704 14.5739C4.19025 12.5852 5.84501 9.9629 7.06851 8.03995L7.06853 8.0398ZM24.5907 49.4932L24.7672 49.6127C25.3153 49.9845 25.9574 50.1953 26.6195 50.2209L28.6274 50.2972L23.0152 51.3778C22.8399 51.4111 22.6588 51.3735 22.5112 51.2743C22.3632 51.1747 22.2614 51.0201 22.228 50.8448L21.6972 48.0879C21.4783 46.9509 21.1138 45.8467 20.6125 44.8029L20.4653 44.4945C19.8552 43.2249 19.4627 41.8617 19.3036 40.4619L19.2391 39.8991L21.7694 39.4119L23.0815 47.1482C23.2456 48.1022 23.79 48.9485 24.5907 49.493L24.5907 49.4932ZM19.7461 28.8425L21.6179 38.564L19.1317 39.0427C18.9172 37.4832 18.3592 34.1191 17.3617 32.567C16.153 30.682 14.1078 24.5917 14.0875 24.5307C14.0503 24.4192 13.9693 24.3279 13.8633 24.2774L2.70864 19.0291C2.47279 18.9186 2.26383 18.7588 2.09626 18.5596C1.51971 17.8776 1.3164 17.4969 1.27944 17.3619C1.38591 17.144 1.78307 16.4794 2.34259 15.5678L2.74086 15.4825L2.74056 15.4829C3.66392 15.2856 4.62191 15.3251 5.52581 15.5983C5.19268 16.0728 4.79063 16.4944 4.33276 16.85L4.56795 17.2112L4.80064 17.5737C5.03433 17.4084 5.25076 17.2207 5.44682 17.0126L11.3403 18.9202C11.959 19.1214 12.6116 19.1959 13.2596 19.1401L15.3174 18.9631C15.9962 18.9053 16.6788 19.021 17.3008 19.2983L18.3437 19.7647C18.1851 20.7998 18.197 21.854 18.3794 22.8851C18.6534 24.3079 19.7026 25.7506 20.1502 26.316C19.7203 27.0833 19.5767 27.9787 19.7457 28.8422L19.7461 28.8425ZM27.5714 23.3211L27.5714 23.3208C27.5526 23.3291 27.5345 23.3388 27.5175 23.3503C27.4903 23.3677 24.8807 25.0234 23.336 25.3835L22.6482 24.2197L22.6482 24.2193C22.0706 23.2411 21.5973 22.2048 21.2364 21.1273L20.7468 19.6646C20.8354 19.6487 20.9225 19.6331 21.0059 19.6171L21.0063 19.617C21.2738 19.5745 21.5367 19.5062 21.7909 19.413C22.5106 19.0771 23.1012 18.5162 23.4736 17.8148L24.8254 15.36L25.2429 15.6085C25.6993 15.8778 26.2382 15.9714 26.7585 15.8712C26.8967 15.8446 27.0319 15.8045 27.1622 15.7512L27.3858 15.6596C27.7602 15.5057 28.0841 15.2495 28.3203 14.9205C28.5565 14.5915 28.6959 14.2028 28.7226 13.7986L29.3969 14.3048C29.7605 14.5719 30.0735 14.9021 30.3208 15.2797C31.2324 16.7012 31.5064 18.4396 31.0764 20.0723C30.6158 21.8131 29.1555 22.6022 27.5713 23.3207L27.5714 23.3211ZM53.1337 12.8295L51.3631 13.699L51.3631 13.6986C51.3377 13.7113 51.3135 13.7262 51.291 13.7434L49.4837 15.1284L47.8813 15.2344L47.881 15.2345C47.8441 15.2365 47.8079 15.2435 47.773 15.2553L44.6916 16.2872L39.1007 18.0215L35.9945 19.0143C34.7211 19.4212 33.39 19.6184 32.0538 19.5976C32.1988 18.6647 32.1508 17.7118 31.9126 16.7979L34.8929 16.6325L41.1473 16.0862C41.1662 16.0849 41.1849 16.0821 41.2033 16.0777L48.7749 14.4006C48.8053 14.394 48.8347 14.384 48.8631 14.3707L52.9598 12.4663L52.9597 12.4659C53.0158 12.4398 53.081 12.441 53.1362 12.4691C53.1913 12.4973 53.2308 12.5496 53.2421 12.6105C53.2597 12.6999 53.2152 12.7899 53.1337 12.8303L53.1337 12.8295Z" fill="white"/>
</svg>
