<svg width="62" height="46" viewBox="0 0 62 46" fill="none" xmlns="http://www.w3.org/2000/svg">
<path d="M57.625 4.08708H56.6009C56.5996 3.00087 56.168 1.95988 55.3999 1.1919C54.6319 0.42393 53.5909 -0.00768984 52.5048 -0.00909424H51.4807C50.3945 -0.00772272 49.3535 0.423836 48.5855 1.1919C47.8176 1.95997 47.3859 3.00089 47.3845 4.08708V11.2554H42.8545C42.4979 10.4544 41.942 9.75864 41.2403 9.2334V5.62315C41.2389 4.6727 40.8613 3.76208 40.1893 3.08995C39.5172 2.41792 38.6066 2.0403 37.6561 2.03893C37.0531 2.04305 36.461 2.20122 35.9367 2.49838C35.635 1.52326 34.9291 0.725093 33.9988 0.30541C33.0684 -0.113804 32.0032 -0.113804 31.0729 0.30541C30.1426 0.725081 29.4368 1.52326 29.135 2.49838C28.6106 2.20122 28.0186 2.04305 27.4156 2.03893C26.6558 2.04168 25.917 2.28626 25.3054 2.73702C24.6942 3.18778 24.242 3.8214 24.0149 4.54647C23.4905 4.24931 22.8985 4.09114 22.2955 4.08702C21.3451 4.08839 20.4345 4.46601 19.7623 5.13804C19.0903 5.81007 18.7127 6.72069 18.7113 7.67123V11.2554H14.6151V4.08708C14.6138 3.00087 14.1822 1.95988 13.4141 1.1919C12.6461 0.42393 11.6052 -0.00768984 10.519 -0.00909424H9.49493C8.40871 -0.00772272 7.36772 0.423836 6.59975 1.1919C5.83177 1.95997 5.40016 3.00089 5.39875 4.08708H4.37471C3.2885 4.08845 2.24751 4.52001 1.47953 5.28808C0.711558 6.05615 0.279938 7.09707 0.278534 8.18325V22.5199C0.279448 23.6061 0.711465 24.6471 1.47953 25.415C2.2476 26.183 3.28852 26.6151 4.37471 26.616H5.39875C5.39967 27.7022 5.83168 28.7432 6.59975 29.5112C7.36782 30.2792 8.40874 30.7113 9.49493 30.7122H10.519C11.6052 30.7113 12.6462 30.2793 13.4141 29.5112C14.1821 28.7431 14.6142 27.7022 14.6151 26.616V19.4477H18.7113V21.4958C18.7113 26.7271 20.8266 29.279 21.7834 30.1673V44.0252C21.7834 44.5908 22.242 45.0493 22.8075 45.0493C23.373 45.0493 23.8315 44.5908 23.8315 44.0252V29.6886C23.8279 29.3517 23.6619 29.0367 23.3853 28.8438C23.2784 28.7674 20.7593 26.9384 20.7593 21.4963V19.4482H32.6816C31.5035 20.886 30.9037 22.7119 31.0001 24.5684C31.0001 25.1339 31.4587 25.5925 32.0242 25.5925C32.5897 25.5925 33.0482 25.1339 33.0482 24.5684C33.0482 19.6444 36.7316 19.4537 37.1444 19.4482C37.4159 19.4482 37.6765 19.3403 37.8685 19.1483C38.0605 18.9563 38.1684 18.6957 38.1684 18.4242V14.328C38.1684 14.0565 38.0605 13.7959 37.8685 13.6039C37.6765 13.4119 37.4159 13.304 37.1444 13.304H34.0723C33.2576 13.303 32.4767 12.9789 31.9007 12.4034C31.3251 11.8273 31.001 11.0465 31.0001 10.2318H38.1684C38.9831 10.2327 39.7639 10.5568 40.34 11.1324C40.9155 11.7084 41.2397 12.4893 41.2406 13.304V21.4963C41.2406 26.9384 38.7217 28.7675 38.6243 28.8365C38.3395 29.0267 38.1685 29.3463 38.1685 29.6887V44.0253C38.1685 44.5908 38.627 45.0493 39.1925 45.0493C39.758 45.0493 40.2166 44.5908 40.2166 44.0253V30.1674C41.1734 29.2795 43.2887 26.7271 43.2887 21.4959V19.4478H47.3849V26.6161C47.3858 27.7023 47.8178 28.7433 48.5859 29.5113C49.354 30.2792 50.3949 30.7113 51.4811 30.7123H52.5051C53.5913 30.7113 54.6323 30.2793 55.4003 29.5113C56.1683 28.7432 56.6003 27.7023 56.6013 26.6161H57.6253C58.7115 26.6152 59.7525 26.1832 60.5205 25.4151C61.2885 24.647 61.7206 23.6061 61.7215 22.5199V8.1833C61.7201 7.09709 61.2886 6.0561 60.5205 5.28813C59.7524 4.52015 58.7115 4.08853 57.6253 4.08713L57.625 4.08708ZM5.39875 24.568H4.37471C3.8316 24.567 3.31135 24.3512 2.92735 23.9672C2.54336 23.5832 2.32756 23.063 2.32664 22.5199V8.18328C2.3271 7.64017 2.54334 7.11992 2.92735 6.73592C3.31136 6.35192 3.83163 6.13567 4.37471 6.13521H5.39875V24.568ZM12.5671 26.616C12.5661 27.1591 12.3504 27.6794 11.9663 28.0634C11.5823 28.4474 11.0621 28.6632 10.519 28.6641H9.49495C8.95184 28.6632 8.43159 28.4474 8.04759 28.0634C7.6636 27.6794 7.4478 27.1591 7.44688 26.616V4.08708C7.44734 3.54397 7.66358 3.02373 8.04759 2.63973C8.4316 2.25573 8.95187 2.03947 9.49495 2.03902H10.519C11.0621 2.03947 11.5823 2.25572 11.9663 2.63973C12.3503 3.02374 12.5666 3.544 12.5671 4.08708V26.616ZM25.8796 5.62256C25.8796 4.77407 26.5672 4.08649 27.4157 4.08649C28.2642 4.08649 28.9518 4.77407 28.9518 5.62256V11.7668C28.9518 12.6153 28.2642 13.3029 27.4157 13.3029C26.5672 13.3029 25.8796 12.6153 25.8796 11.7668V5.62256ZM20.7594 7.67065C20.7594 6.82215 21.447 6.13458 22.2955 6.13458C23.144 6.13458 23.8315 6.82215 23.8315 7.67065V11.7668C23.8315 12.6153 23.144 13.3029 22.2955 13.3029C21.447 13.3029 20.7594 12.6153 20.7594 11.7668V7.67065ZM34.072 15.351H36.1201V17.3991H14.6151V13.3029H19.0706C19.5689 14.3626 20.5555 15.11 21.7103 15.3025C22.8651 15.495 24.0409 15.1082 24.8556 14.267C25.6067 15.0401 26.6664 15.4333 27.7399 15.3363C28.8133 15.2399 29.7861 14.6639 30.3868 13.7691C31.3473 14.7776 32.679 15.3496 34.072 15.351ZM34.072 8.18267H30.9998V3.57447C30.9998 2.72598 31.6874 2.03841 32.5359 2.03841C33.3844 2.03841 34.072 2.72598 34.072 3.57447V8.18267ZM39.1922 8.28599C38.8553 8.21741 38.5119 8.18267 38.1681 8.18267H36.1201V5.62256C36.1201 4.77407 36.8076 4.08649 37.6561 4.08649C38.5046 4.08649 39.1922 4.77407 39.1922 5.62256V8.28599ZM47.3845 17.399H43.2884V13.3029H47.3845V17.399ZM54.5528 26.6154C54.5519 27.1585 54.3361 27.6788 53.9521 28.0628C53.5681 28.4468 53.0479 28.6626 52.5048 28.6635H51.4807C50.9376 28.6626 50.4174 28.4468 50.0334 28.0628C49.6494 27.6788 49.4336 27.1585 49.4327 26.6154V4.08647C49.4331 3.54337 49.6494 3.02312 50.0334 2.63912C50.4174 2.25512 50.9376 2.03887 51.4807 2.03841H52.5048C53.0479 2.03887 53.5681 2.25511 53.9521 2.63912C54.3361 3.02313 54.5524 3.54339 54.5528 4.08647V26.6154ZM59.6731 22.5193C59.6721 23.0624 59.4564 23.5826 59.0723 23.9666C58.6883 24.3506 58.1681 24.5664 57.625 24.5673H56.6009V6.13454H57.625C58.1681 6.13499 58.6883 6.35124 59.0723 6.73525C59.4563 7.11926 59.6726 7.63952 59.6731 8.1826V22.5193Z" fill="white" fill-opacity="0.85"/>
</svg>
